<svg id="Layer_1" data-name="Layer 1" xmlns="http://www.w3.org/2000/svg" viewBox="0 0 233.44715 48"><defs><style>.cls-1{fill:#62cbc9;}.cls-2{fill:#3f738d;}.cls-3{fill:#185a7d;}</style></defs><path class="cls-1" d="M35.02649,17.04665H20.82115c-.03818-.00075-.074-.01138-.11221-.01138h0a5.59414,5.59414,0,0,0-5.57783,5.57766V36.70348a5.59415,5.59415,0,0,0,5.57783,5.57766h.2271a5.36609,5.36609,0,0,0,5.3504-5.35057v-8.7285h8.513a5.59416,5.59416,0,0,0,5.57784-5.57766v-.2271A5.36657,5.36657,0,0,0,35.02649,17.04665Z"/><path class="cls-2" d="M20.70894,2.96758h-.22709a5.36644,5.36644,0,0,0-5.35074,5.35058v8.72858l-8.51262-.00009a5.59394,5.59394,0,0,0-5.57784,5.57767v.22709a5.36627,5.36627,0,0,0,5.35041,5.35066H20.59573c.03852.00076.07436.01148.11321.01148a5.59408,5.59408,0,0,0,5.5775-5.57767V8.54534A5.594,5.594,0,0,0,20.70894,2.96758Z"/><path class="cls-3" d="M20.70894,17.03527a5.59414,5.59414,0,0,0-5.57783,5.57766v5.58914h5.46462c.03852.00076.07436.01148.11321.01148a5.59408,5.59408,0,0,0,5.5775-5.57767V17.04665H20.82115C20.783,17.0459,20.74713,17.03527,20.70894,17.03527Z"/><path class="cls-2" d="M140.454,31.08418a16.262,16.262,0,0,0-16.01818-16.45984c-8.98248,0-16.01882,7.23-16.01882,16.45984a15.71316,15.71316,0,0,0,10.17333,15.196,18.14579,18.14579,0,0,0,19.75026-4.479l-2.02527-1.83549a15.84481,15.84481,0,0,1-16.15393,4.046,12.75368,12.75368,0,0,1-8.90914-11.07948l-.05661-.49506H140.454Zm-29.25386-1.38482.05211-.4912a13.2379,13.2379,0,0,1,26.335-.00707l.06047.49827Z"/><path class="cls-2" d="M110.19736,13.835H95.10818V7.86083A4.04738,4.04738,0,0,1,99.25973,3.4291h6.68443V.79393H99.25973c-.06755,0-6.78672.08074-6.78672,7.0669V13.835H87.4806v2.63517H92.473V46.984h2.63517V16.47017h15.08918Z"/><polygon class="cls-2" points="74.44 16.47 80.32 16.47 80.32 46.984 82.955 46.984 82.955 13.835 74.44 13.835 74.44 16.47"/><path class="cls-2" d="M53.97547,36.65373V.84926H51.3403V36.65373c0,9.98932,8.52313,10.10513,8.60934,10.10513H73.78492V44.12369H59.95736C59.34489,44.11661,53.97547,43.84512,53.97547,36.65373Z"/><path class="cls-2" d="M81.63784.45191a2.05678,2.05678,0,1,0,2.05679,2.05675A2.05683,2.05683,0,0,0,81.63784.45191Z"/><path class="cls-2" d="M140.454,31.08418a16.262,16.262,0,0,0-16.01818-16.45984c-8.98248,0-16.01882,7.23-16.01882,16.45984a15.71316,15.71316,0,0,0,10.17333,15.196,18.14579,18.14579,0,0,0,19.75026-4.479l-2.02527-1.83549a15.84481,15.84481,0,0,1-16.15393,4.046,12.75368,12.75368,0,0,1-8.90914-11.07948l-.05661-.49506H140.454Zm-29.25386-1.38482.05211-.4912a13.2379,13.2379,0,0,1,26.335-.00707l.06047.49827Z"/><path class="cls-2" d="M110.19736,13.835H95.10818V7.86083A4.04738,4.04738,0,0,1,99.25973,3.4291h6.68443V.79393H99.25973c-.06755,0-6.78672.08074-6.78672,7.0669V13.835H87.4806v2.63517H92.473V46.984h2.63517V16.47017h15.08918Z"/><polygon class="cls-2" points="74.44 16.47 80.32 16.47 80.32 46.984 82.955 46.984 82.955 13.835 74.44 13.835 74.44 16.47"/><path class="cls-2" d="M53.97547,36.65373V2.16684A1.31758,1.31758,0,0,0,52.65789.84926h0A1.31758,1.31758,0,0,0,51.3403,2.16684V36.65373c0,9.98932,8.52313,10.10513,8.60934,10.10513h12.5177a1.31759,1.31759,0,0,0,1.31758-1.31759h0a1.31758,1.31758,0,0,0-1.31758-1.31758h-12.51C59.34489,44.11661,53.97547,43.84512,53.97547,36.65373Z"/><path class="cls-2" d="M81.63784.45191a2.05678,2.05678,0,1,0,2.05679,2.05675A2.05683,2.05683,0,0,0,81.63784.45191Z"/><path class="cls-1" d="M228.77275,18.86842A20.6856,20.6856,0,0,0,224.3905,12.41a20.89427,20.89427,0,0,0-6.4587-4.3818,19.28739,19.28739,0,0,0-7.8266-1.60885H197.88485a1.28069,1.28069,0,0,0-1.28069,1.2807V45.7035a1.28055,1.28055,0,0,0,1.28054,1.28055h12.2205a19.45115,19.45115,0,0,0,7.852-1.60877,20.3004,20.3004,0,0,0,6.4584-4.3818,20.82132,20.82132,0,0,0,4.35712-6.45832,19.88139,19.88139,0,0,0,0-15.66674ZM222.5564,31.90066a13.89292,13.89292,0,0,1-2.88734,4.33146,13.32664,13.32664,0,0,1-9.5617,3.97666H204.612a1.28063,1.28063,0,0,1-1.28062-1.28055V14.4755A1.28063,1.28063,0,0,1,204.612,13.195h5.49534a13.13769,13.13769,0,0,1,5.20534,1.05178,13.61987,13.61987,0,0,1,4.318,2.92473,13.36892,13.36892,0,0,1,2.92572,4.33138,13.38473,13.38473,0,0,1,0,10.39782Z"/><path class="cls-1" d="M188.13737,6.7959,170.88858,24.00165a1.22215,1.22215,0,0,1-1.7479,0L151.89189,6.7959a1.28053,1.28053,0,0,0-2.18488.90662V45.70343a1.28069,1.28069,0,0,0,1.28062,1.28062h4.27762a1.28069,1.28069,0,0,0,1.28062-1.28062V24.02823a1.28081,1.28081,0,0,1,1.83534-1.15314l10.69458,10.69665a1.37936,1.37936,0,0,0,1.87768,0l10.69459-10.69665a1.2808,1.2808,0,0,1,1.83533,1.15314v21.6752a1.28069,1.28069,0,0,0,1.28062,1.28062h4.27762a1.28069,1.28069,0,0,0,1.28062-1.28062V7.70252A1.28053,1.28053,0,0,0,188.13737,6.7959Z"/><path class="cls-1" d="M231.8314,8.45749a2.59009,2.59009,0,0,1-4.427-1.84233,2.5937,2.5937,0,0,1,5.18739,0A2.51612,2.51612,0,0,1,231.8314,8.45749Zm-3.41567-3.41933a2.15913,2.15913,0,0,0-.65051,1.58066,2.18512,2.18512,0,0,0,.647,1.59118,2.22833,2.22833,0,0,0,3.16132,0,2.18019,2.18019,0,0,0,.65051-1.59118,2.22787,2.22787,0,0,0-3.80832-1.58066Zm1.5276.145a2.17461,2.17461,0,0,1,.778.10262.70737.70737,0,0,1,.44206.72214.62307.62307,0,0,1-.27833.56265,1.07892,1.07892,0,0,1-.41165.13814.69052.69052,0,0,1,.48912.27906.78177.78177,0,0,1,.15466.44147v.2083q0,.09912.00731.212a.46255.46255,0,0,0,.02456.14837l.01783.03523h-.47041l-.007-.02807-.007-.03186-.01082-.09151V7.656a.69613.69613,0,0,0-.26868-.65211,1.20879,1.20879,0,0,0-.5587-.09166h-.39586V8.03312h-.50228v-2.85Zm.54233.44907a1.30794,1.30794,0,0,0-.60841-.10613h-.42889V6.55859h.45374A1.366,1.366,0,0,0,230.381,6.495a.43861.43861,0,0,0,.29441-.44556A.43547.43547,0,0,0,230.48566,5.63224Z"/></svg>