<svg xmlns="http://www.w3.org/2000/svg" viewBox="0 0 232 65.2"><defs><style>.cls-1{fill:#62cbc9;}.cls-2{fill:#3f738d;}.cls-3{fill:#185a7d;}</style></defs><g id="Layer_2" data-name="Layer 2"><g id="Layer_2-2" data-name="Layer 2"><path class="cls-1" d="M228.73,8.59H220a3.41,3.41,0,0,0-3.4,3.4v8.6A3.41,3.41,0,0,0,220,24h.14a3.28,3.28,0,0,0,3.27-3.27V15.4h5.2A3.41,3.41,0,0,0,232,12v-.14A3.28,3.28,0,0,0,228.73,8.59Z"/><path class="cls-2" d="M220,0h-.13a3.28,3.28,0,0,0-3.27,3.27V8.59h-5.2A3.42,3.42,0,0,0,208,12v.14a3.27,3.27,0,0,0,3.26,3.26H220A3.41,3.41,0,0,0,223.4,12V3.4A3.41,3.41,0,0,0,220,0Z"/><path class="cls-3" d="M220,8.59a3.41,3.41,0,0,0-3.4,3.4V15.4H220A3.41,3.41,0,0,0,223.4,12V8.59H220Z"/><path class="cls-2" d="M108.07,45.28c0-11-8.72-20-19.43-20-10.89,0-19.42,8.77-19.42,20,0,8.53,4.61,15.42,12.33,18.43a22,22,0,0,0,24-5.43l-2.45-2.23A19.22,19.22,0,0,1,83.46,61,15.49,15.49,0,0,1,72.65,47.52l-.06-.6h35.48ZM72.59,43.6l.06-.59a16.06,16.06,0,0,1,31.94,0l.07.6Z"/><path class="cls-2" d="M71.37,24.36H53.08V17.12c0-5.06,4.2-5.37,5-5.38h8.11V8.55H58.11c-.08,0-8.23.1-8.23,8.57v7.24H43.83v3.2h6.05v37h3.2v-37H71.37Z"/><polygon class="cls-2" points="28.01 27.56 35.14 27.56 35.14 64.56 38.34 64.56 38.34 24.36 28.01 24.36 28.01 27.56"/><path class="cls-2" d="M3.2,52V8.62H0V52C0,64.15,10.34,64.29,10.44,64.29H27.22v-3.2H10.45C9.71,61.09,3.2,60.76,3.2,52Z"/><path class="cls-2" d="M36.74,8.13a2.5,2.5,0,1,0,2.5,2.5A2.49,2.49,0,0,0,36.74,8.13Z"/><path class="cls-2" d="M108.07,45.28c0-11-8.72-20-19.43-20-10.89,0-19.42,8.77-19.42,20,0,8.53,4.61,15.42,12.33,18.43a22,22,0,0,0,24-5.43l-2.45-2.23A19.22,19.22,0,0,1,83.46,61,15.49,15.49,0,0,1,72.65,47.52l-.06-.6h35.48ZM72.59,43.6l.06-.59a16.06,16.06,0,0,1,31.94,0l.07.6Z"/><path class="cls-2" d="M71.37,24.36H53.08V17.12c0-5.06,4.2-5.37,5-5.38h8.11V8.55H58.11c-.08,0-8.23.1-8.23,8.57v7.24H43.83v3.2h6.05v37h3.2v-37H71.37Z"/><polygon class="cls-2" points="28.01 27.56 35.14 27.56 35.14 64.56 38.34 64.56 38.34 24.36 28.01 24.36 28.01 27.56"/><path class="cls-2" d="M3.2,52V10.21A1.6,1.6,0,0,0,1.6,8.62h0A1.6,1.6,0,0,0,0,10.21V52C0,64.15,10.34,64.29,10.44,64.29H25.62a1.6,1.6,0,0,0,1.6-1.6h0a1.6,1.6,0,0,0-1.6-1.6H10.45C9.71,61.09,3.2,60.76,3.2,52Z"/><path class="cls-2" d="M36.74,8.13a2.5,2.5,0,1,0,2.5,2.5A2.49,2.49,0,0,0,36.74,8.13Z"/><path class="cls-1" d="M215.17,30.47a24.91,24.91,0,0,0-5.32-7.83A25.25,25.25,0,0,0,202,17.32a23.46,23.46,0,0,0-9.49-2H177.71a1.55,1.55,0,0,0-1.55,1.55V63a1.54,1.54,0,0,0,1.55,1.55h14.82a23.47,23.47,0,0,0,9.52-2,24.54,24.54,0,0,0,7.83-5.31,25.29,25.29,0,0,0,5.29-7.83,24.12,24.12,0,0,0,0-19Zm-7.54,15.8a16.71,16.71,0,0,1-3.5,5.25,16.16,16.16,0,0,1-11.6,4.83h-6.66a1.55,1.55,0,0,1-1.55-1.56V25.14a1.54,1.54,0,0,1,1.55-1.55h6.66a16.07,16.07,0,0,1,6.32,1.27,16.48,16.48,0,0,1,5.23,3.55,16.24,16.24,0,0,1,3.55,5.25,16.29,16.29,0,0,1,0,12.61Z"/><path class="cls-1" d="M165.89,15.83,145,36.69a1.5,1.5,0,0,1-1.06.45,1.54,1.54,0,0,1-1.06-.45L121.94,15.83a1.55,1.55,0,0,0-2.65,1.1h0V63a1.54,1.54,0,0,0,1.55,1.55H126A1.54,1.54,0,0,0,127.58,63V36.72a1.55,1.55,0,0,1,2.23-1.39l13,13a1.54,1.54,0,0,0,1.13.45,1.56,1.56,0,0,0,1.14-.45l13-13a1.55,1.55,0,0,1,2.23,1.39V63a1.54,1.54,0,0,0,1.55,1.55H167A1.55,1.55,0,0,0,168.54,63V16.94h0A1.55,1.55,0,0,0,165.89,15.83Z"/></g></g></svg>